:SAMPLES-PER-SECOND 30
:FRAME-RANGE 1-744
:FULLY-SPECIFIED
:DEGREES
163
root  -25.5164 39.3858 -75.536 -4.21709 55.5173 -3.70049
RightUpLeg  2.0058 -9.04178 -2.55992
RightLeg  14.8737 -5.97865 0.270862
RightFoot  -13.8188 0.00097497 4.37737
RightToes  -5.28216e-011 1.2921e-014 -6.02303e-014
Spine  -3.06647 4.26147 13.8099
Spine1  5.67666 5.50624 -7.18697
HEad  11.5769 27.9092 -10.2168
LeftShoulder1  0.977534 -1.59719 -13.1723
LeftArm  -15.1944 -17.2404 -37.7988
LeftForeArm  -29.6715 -27.7593 -7.35893
LeftHand  -0.0615371 6.76816 -1.86919
RightShoulder  2.30092 6.87007 15.9973
RightArm  6.49227 43.4057 65.4429
RightForeArm  17.6949 22.0911 4.28171
RightHand  0.149349 -7.62701 -9.26128
LeftUpLeg  -19.8426 -4.03728 -3.08608
LeftLeg  6.14776 11.1015 2.83118
LeftFoot  4.36216 0.311352 -2.45013
LeftToes  -9.4837e-011 -7.11147e-011 -1.07582e-011
164
root  -24.9057 39.3256 -74.5645 -4.4753 57.5742 -4.46747
RightUpLeg  4.23809 -8.14877 -1.35901
RightLeg  13.523 -9.13859 0.0886362
RightFoot  -14.8358 0.0307375 4.30334
RightToes  -5.28216e-011 1.2921e-014 -6.02303e-014
Spine  -3.77585 4.54535 13.9417
Spine1  6.08328 5.869 -7.82122
HEad  11.788 26.2252 -9.21965
LeftShoulder1  0.95585 -1.66821 -12.3768
LeftArm  -14.7688 -18.4394 -36.563
LeftForeArm  -28.6938 -31.1609 -8.20665
LeftHand  -0.0793031 6.77864 -3.19079
RightShoulder  2.26232 7.19397 14.8312
RightArm  4.79005 46.4911 66.0697
RightForeArm  14.64 21.761 4.46106
RightHand  0.121884 -7.73262 -7.61954
LeftUpLeg  -19.102 -3.84541 -3.27178
LeftLeg  -1.99944 7.17925 1.65816
LeftFoot  3.69283 0.33768 -2.72917
LeftToes  -9.4837e-011 -7.11147e-011 -1.07582e-011
165
root  -24.2825 39.1051 -73.6367 -5.3192 59.5876 -5.82906
RightUpLeg  5.53009 -8.65691 0.0757676
RightLeg  14.1533 -10.803 -0.441632
RightFoot  -16.6626 0.0972461 4.52137
RightToes  -5.28216e-011 1.2921e-014 -6.02303e-014
Spine  -3.47038 4.63565 13.9312
Spine1  5.36373 5.97901 -8.11835
HEad  11.783 24.613 -8.39484
LeftShoulder1  0.938496 -1.74432 -11.676
LeftArm  -14.4212 -19.1775 -35.4548
LeftForeArm  -28.9585 -35.043 -9.32582
LeftHand  -0.0677723 7.4451 -1.41921
RightShoulder  2.17888 7.27302 13.7848
RightArm  3.09964 49.112 66.5021
RightForeArm  11.1883 21.1421 4.72209
RightHand  0.0908716 -8.0086 -5.62031
LeftUpLeg  -20.0059 -4.4414 -3.00918
LeftLeg  -3.41768 3.83354 2.09399
LeftFoot  -2.15229 0.468754 -5.67048
LeftToes  -9.4837e-011 -7.11147e-011 -1.07582e-011
166
root  -23.6615 38.8067 -72.7411 -5.80313 61.5529 -6.62308
RightUpLeg  6.08802 -11.1328 1.00523
RightLeg  16.4645 -10.2869 -1.64574
RightFoot  -19.0227 0.20652 4.99478
RightToes  -5.28216e-011 1.2921e-014 -6.02303e-014
Spine  -2.87497 4.65751 13.2533
Spine1  4.94182 6.06094 -8.17845
HEad  10.7504 22.8492 -7.8136
LeftShoulder1  0.959726 -1.98904 -11.1688
LeftArm  -14.8588 -19.8542 -34.1337
LeftForeArm  -28.2084 -38.9611 -10.5473
LeftHand  -0.0772139 7.69665 -1.64966
RightShoulder  2.09139 7.39198 12.6272
RightArm  1.12658 51.3141 66.248
RightForeArm  7.98591 20.8831 4.84365
RightHand  0.050921 -8.28287 -3.65011
LeftUpLeg  -22.1634 -4.79931 -2.83816
LeftLeg  0.287078 0.884169 2.26733
LeftFoot  -2.28267 0.40366 -4.92177
LeftToes  -9.4837e-011 -7.11147e-011 -1.07582e-011
167
root  -22.9445 38.5793 -71.8788 -5.70992 62.4899 -6.52748
RightUpLeg  6.39429 -14.1917 1.23025
RightLeg  19.586 -7.80898 -3.05356
RightFoot  -20.585 0.359799 6.1732
RightToes  -5.28216e-011 1.2921e-014 -6.02303e-014
Spine  -2.66245 5.04734 12.6835
Spine1  5.47365 6.7283 -8.84999
HEad  9.47028 21.1591 -7.06329
LeftShoulder1  0.971073 -2.24148 -10.4802
LeftArm  -15.1901 -20.1572 -33.0126
LeftForeArm  -26.9765 -42.8572 -11.908
LeftHand  -0.0802487 8.15221 -1.40958
RightShoulder  2.05803 7.69843 11.689
RightArm  0.0271287 52.962 65.1862
RightForeArm  4.82536 20.7611 4.96581
RightHand  0.0126377 -8.78418 -1.97333
LeftUpLeg  -23.3825 -5.74486 -2.79323
LeftLeg  4.41929 1.45306 2.90864
LeftFoot  -1.13491 0.314998 -3.45115
LeftToes  -9.4837e-011 -7.11147e-011 -1.07582e-011
168
root  -22.1698 38.4712 -71.0716 -5.63188 62.4833 -6.26584
RightUpLeg  5.92754 -12.3125 1.72119
RightLeg  24.464 -7.8763 -4.11715
RightFoot  -20.7847 0.602962 8.99382
RightToes  -5.28216e-011 1.2921e-014 -6.02303e-014
Spine  -2.11526 5.45088 12.0909
Spine1  5.71094 7.45611 -9.68447
HEad  9.3007 20.0423 -5.98213
LeftShoulder1  0.892032 -1.84775 -10.2605
LeftArm  -14.7888 -19.9187 -31.6069
LeftForeArm  -24.9713 -46.565 -13.3612
LeftHand  -0.0718953 8.46373 -0.913498
RightShoulder  2.05665 8.06351 11.0104
RightArm  0.323188 53.9549 65.0747
RightForeArm  2.35575 20.1627 5.21876
RightHand  -0.0198634 -9.17772 -0.888327
LeftUpLeg  -24.0123 -6.62472 -2.33714
LeftLeg  7.98355 2.77715 3.32623
LeftFoot  3.13784 0.331911 -2.76298
LeftToes  -9.4837e-011 -7.11147e-011 -1.07582e-011
169
root  -21.359 38.3331 -70.3168 -4.18855 63.3826 -4.7859
RightUpLeg  3.74218 -12.1116 0.803694
RightLeg  32.271 -5.84087 -4.20394
RightFoot  -20.1061 0.811529 12.3325
RightToes  -5.28216e-011 1.2921e-014 -6.02303e-014
Spine  -1.90578 5.43537 10.4433
Spine1  5.77828 7.56903 -10.2926
HEad  9.55918 19.3022 -4.96586
LeftShoulder1  0.885466 -1.79182 -10.3283
LeftArm  -14.6888 -17.9602 -29.9629
LeftForeArm  -24.8464 -51.1139 -15.6246
LeftHand  -0.0434105 9.219 0.200885
RightShoulder  2.04218 8.16106 10.6989
RightArm  1.74821 54.051 65.7114
RightForeArm  0.446709 19.9727 5.40882
RightHand  -0.0591757 -9.30616 0.230554
LeftUpLeg  -25.0284 -8.03901 -2.25441
LeftLeg  11.9195 3.23021 2.75016
LeftFoot  5.4996 0.279595 -2.11486
LeftToes  -9.4837e-011 -7.11147e-011 -1.07582e-011
170
root  -20.5208 38.287 -69.6238 -4.25003 65.3961 -4.8595
RightUpLeg  1.08746 -14.0053 -0.308164
RightLeg  40.6492 -2.5701 -2.64429
RightFoot  -16.5167 0.599464 15.6673
RightToes  -5.28216e-011 1.2921e-014 -6.02303e-014
Spine  -1.89629 5.13865 9.63634
Spine1  5.9415 7.27115 -10.5012
HEad  10.1361 18.0014 -4.45509
LeftShoulder1  0.962338 -2.16928 -10.5593
LeftArm  -14.9848 -15.9158 -29.421
LeftForeArm  -22.2028 -54.1096 -17.2676
LeftHand  -0.0203018 9.28405 0.861905
RightShoulder  1.97239 8.07719 10.16
RightArm  5.32469 53.3118 65.5669
RightForeArm  -4.4784 20.699 5.5909
RightHand  -0.0770966 -9.85469 0.572646
LeftUpLeg  -25.3498 -9.50758 -2.01073
LeftLeg  15.1298 3.00848 2.02962
LeftFoot  5.72659 0.183679 -1.4563
LeftToes  -9.4837e-011 -7.11147e-011 -1.07582e-011
171
root  -19.6763 38.347 -69.0064 -4.81253 66.925 -5.38884
RightUpLeg  -2.5339 -15.6438 -1.19035
RightLeg  49.3627 -1.06776 -1.68188
RightFoot  -9.74841 -0.26555 14.2445
RightToes  -5.28216e-011 1.2921e-014 -6.02303e-014
Spine  -1.85094 5.08793 9.47529
Spine1  6.08223 7.23807 -10.5649
HEad  11.2378 16.8249 -4.21503
LeftShoulder1  0.96576 -1.98202 -11.3222
LeftArm  -14.3195 -14.6991 -29.0164
LeftForeArm  -19.52 -56.6757 -18.8843
LeftHand  0.00070343 9.51006 1.41195
RightShoulder  1.90179 7.96153 9.65696
RightArm  10.4547 52.3427 64.6096
RightForeArm  -9.71901 22.3938 5.56663
RightHand  -0.139369 -9.85235 2.12076
LeftUpLeg  -24.8814 -10.2559 -2.03823
LeftLeg  17.2222 2.14851 1.34043
LeftFoot  5.89251 -0.376491 2.24789
LeftToes  -9.4837e-011 -7.11147e-011 -1.07582e-011
172
root  -18.8591 38.4592 -68.4071 -5.72728 67.7553 -6.06413
RightUpLeg  -6.24962 -15.7748 -1.44797
RightLeg  56.8896 -1.08777 -2.24095
RightFoot  -3.29418 -0.816009 11.2465
RightToes  -5.28216e-011 1.2921e-014 -6.02303e-014
Spine  -1.56262 5.19547 9.62134
Spine1  6.10995 7.45534 -10.9248
HEad  12.7262 15.758 -3.5665
LeftShoulder1  0.954512 -1.91193 -11.355
LeftArm  -13.8722 -12.7335 -28.9765
LeftForeArm  -18.2807 -59.2325 -20.8808
LeftHand  -0.0242242 9.41984 0.746705
RightShoulder  1.89122 7.94596 9.57771
RightArm  14.0805 50.9715 63.1847
RightForeArm  -13.4524 25.3422 6.09623
RightHand  -0.187546 -9.84713 3.32184
LeftUpLeg  -23.9431 -11.5264 -1.86242
LeftLeg  18.9521 2.71156 1.41702
LeftFoot  5.21718 -0.790936 5.21359
LeftToes  -9.4837e-011 -7.11147e-011 -1.07582e-011
173
root  -18.1414 38.5243 -67.8435 -5.96565 68.1094 -6.00398
RightUpLeg  -8.9363 -14.8141 -1.76798
RightLeg  61.2869 -1.30388 -3.10707
RightFoot  -3.41853 -0.701768 9.77377
RightToes  -5.28216e-011 1.2921e-014 -6.02303e-014
Spine  -0.984057 5.52021 8.99118
Spine1  6.08087 7.72781 -10.7483
HEad  14.1442 14.8342 -3.0309
LeftShoulder1  0.905351 -1.54508 -11.764
LeftArm  -12.7392 -11.1241 -28.7319
LeftForeArm  -16.3714 -62.055 -23.5063
LeftHand  -0.0492425 9.56071 0.0802982
RightShoulder  1.85387 7.66649 9.67292
RightArm  14.8243 49.2012 61.8318
RightForeArm  -14.6242 29.5229 7.16788
RightHand  -0.253805 -10.1145 4.65745
LeftUpLeg  -23.1375 -11.6522 -1.93237
LeftLeg  20.9485 2.71105 1.48464
LeftFoot  3.22608 -0.703742 5.34873
LeftToes  -9.4837e-011 -7.11147e-011 -1.07582e-011
174
root  -17.4606 38.6489 -67.2987 -6.97687 69.0607 -7.05133
RightUpLeg  -10.8436 -14.1334 -1.76242
RightLeg  62.0941 -1.7912 -4.21525
RightFoot  -5.78733 -0.464729 8.75043
RightToes  -5.28216e-011 1.2921e-014 -6.02303e-014
Spine  -0.814268 5.26835 8.6677
Spine1  5.97493 7.41672 -10.5869
HEad  15.2986 14.369 -2.32373
LeftShoulder1  0.830914 -1.17342 -11.6372
LeftArm  -11.4928 -8.58224 -28.9937
LeftForeArm  -12.7817 -64.8498 -26.6179
LeftHand  -0.155684 9.54733 -2.74738
RightShoulder  1.88918 7.67715 10.0144
RightArm  13.2377 46.8244 60.6808
RightForeArm  -15.194 34.403 8.51949
RightHand  -0.393971 -11.4566 6.07306
LeftUpLeg  -22.3245 -11.2804 -1.74779
LeftLeg  22.1715 1.70705 1.10695
LeftFoot  1.69897 -0.627553 5.39657
LeftToes  -9.4837e-011 -7.11147e-011 -1.07582e-011
